<?xml version="1.0" standalone="no"?>
<!DOCTYPE svg PUBLIC "-//W3C//DTD SVG 20010904//EN"
 "http://www.w3.org/TR/2001/REC-SVG-20010904/DTD/svg10.dtd">
<svg version="1.0" xmlns="http://www.w3.org/2000/svg"
 width="1408.000000pt" height="768.000000pt" viewBox="0 0 1408.000000 768.000000"
 preserveAspectRatio="xMidYMid meet">

<g transform="translate(0.000000,768.000000) scale(0.100000,-0.100000)"
fill="#000000" stroke="none">
<path d="M6940 7065 c0 -3 17 -29 39 -58 56 -75 95 -150 129 -248 63 -179 67
-347 12 -509 -49 -147 -95 -216 -320 -480 -169 -198 -239 -339 -260 -528 -4
-43 -5 -106 -1 -142 l7 -65 -87 -91 c-248 -260 -416 -570 -487 -904 -108 -497
20 -1024 353 -1464 59 -77 195 -221 290 -305 59 -54 59 -54 25 -46 -19 3 -94
26 -167 50 -335 111 -630 312 -858 585 -315 377 -476 902 -424 1378 39 364
176 685 409 962 39 47 87 117 107 155 72 143 144 237 313 408 l165 169 8 -44
c4 -23 5 -51 3 -60 -2 -10 -3 -18 -1 -18 2 0 29 39 60 86 35 52 123 154 223
258 91 94 189 203 218 242 54 71 116 192 129 251 l6 32 -38 -6 c-661 -95
-1246 -502 -1619 -1127 -257 -429 -384 -905 -384 -1435 0 -396 71 -718 229
-1046 286 -591 834 -1037 1473 -1199 332 -85 642 -94 972 -30 439 85 894 334
1204 658 494 517 699 1186 606 1974 -57 488 -241 945 -534 1333 -77 101 -277
308 -378 391 -101 83 -306 220 -401 268 -138 69 -396 168 -408 157 -1 -2 11
-37 29 -78 56 -133 79 -233 85 -371 3 -71 8 -128 11 -128 3 0 13 6 21 14 13
12 194 106 203 106 2 0 3 -69 3 -152 0 -134 3 -160 22 -211 37 -99 122 -205
221 -277 48 -35 150 -127 228 -205 109 -109 159 -167 222 -263 163 -245 258
-499 293 -785 18 -154 7 -433 -25 -582 -147 -699 -655 -1242 -1346 -1441 -50
-14 -94 -24 -99 -22 -4 2 44 52 108 112 141 133 223 228 311 363 172 262 273
550 301 855 13 142 7 262 -22 440 l-21 126 25 64 c83 206 103 462 51 649 -22
79 -77 211 -106 253 l-22 31 28 -25 c78 -69 166 -217 213 -355 l24 -70 -5 115
c-8 246 -94 444 -280 653 -109 122 -155 185 -196 270 -38 77 -68 202 -56 233
12 31 -18 7 -51 -40 -70 -102 -74 -215 -12 -399 46 -139 47 -180 4 -223 -36
-36 -68 -40 -122 -13 -37 18 -56 37 -81 79 -72 121 -76 228 -17 460 38 149 39
161 39 320 0 165 0 165 -37 273 -65 191 -157 329 -330 493 -94 89 -227 195
-227 179z m120 -1814 c6 -13 10 -212 10 -576 l0 -556 -27 3 -28 3 -3 545 c-2
533 1 600 29 600 5 0 13 -9 19 -19z m-340 -326 c12 -35 44 -68 123 -122 55
-38 80 -82 80 -141 0 -61 -49 -123 -86 -109 -13 5 -11 11 12 36 16 17 31 40
34 51 5 19 1 20 -79 20 -53 0 -84 -4 -84 -11 0 -25 26 -53 95 -105 41 -30 82
-68 90 -84 16 -31 20 -80 7 -80 -14 0 -32 23 -32 41 0 9 -8 27 -18 39 -16 20
-21 21 -39 9 -18 -10 -24 -11 -37 0 -13 11 -19 11 -31 1 -28 -23 -16 -30 50
-30 51 0 65 -3 65 -15 0 -12 -15 -15 -71 -15 -57 0 -75 -4 -85 -17 -10 -14
-15 -15 -24 -6 -27 26 40 140 74 127 9 -3 16 -12 16 -20 0 -8 10 -14 25 -14
14 0 25 2 25 4 0 3 -26 23 -58 45 -69 49 -92 84 -92 143 0 68 54 140 90 118
10 -6 6 -16 -18 -46 -18 -21 -32 -42 -32 -46 0 -5 36 -8 80 -8 48 0 80 4 80
10 0 21 -33 60 -69 82 -88 55 -148 133 -126 168 11 19 23 10 35 -25z m200 8
c0 -32 -33 -91 -55 -99 -8 -4 -22 -3 -31 0 -14 5 -12 11 12 34 l29 27 -65 3
c-94 4 -101 22 -9 22 63 0 76 3 87 20 17 28 32 25 32 -7z m-110 -63 c0 -5 -4
-10 -9 -10 -6 0 -13 5 -16 10 -3 6 1 10 9 10 9 0 16 -4 16 -10z m45 -140 c4
-6 -15 -10 -49 -10 -31 0 -56 5 -56 10 0 6 22 10 49 10 28 0 53 -4 56 -10z
m-330 -12 c30 -13 30 -16 5 -46 -16 -20 -22 -21 -40 -12 -13 7 -19 17 -16 27
3 8 6 21 6 29 0 17 11 18 45 2z m1128 1 c30 -16 37 -28 37 -66 0 -57 -63 -82
-107 -41 -43 40 -19 105 45 117 2 1 13 -4 25 -10z m-1168 -76 c52 -25 45 -67
-16 -87 -43 -14 -61 -56 -36 -84 16 -18 16 -21 -8 -65 l-26 -46 -45 21 c-24
12 -44 26 -44 30 0 17 121 248 130 248 5 0 25 -8 45 -17z m989 -9 c80 -20 114
-43 151 -98 17 -25 33 -46 38 -46 4 0 25 12 47 26 43 29 75 29 75 0 0 -18
-114 -106 -137 -106 -5 0 -24 16 -41 35 l-31 35 -38 -37 c-21 -20 -38 -42 -38
-48 0 -6 18 -22 40 -34 22 -12 48 -33 56 -47 15 -22 15 -25 -2 -48 -35 -45
-153 -138 -169 -132 -26 10 -16 40 31 94 26 29 45 54 43 56 -2 1 -26 13 -52
26 -58 27 -87 56 -87 86 0 13 23 53 51 90 28 37 46 71 42 75 -17 17 -62 13
-111 -10 -50 -23 -87 -23 -80 2 4 13 126 97 141 97 5 0 37 -7 71 -16z m-614
-13 c0 -24 -77 -28 -106 -6 -17 13 -14 14 44 15 34 0 62 -4 62 -9z m-360 -96
c6 -8 10 -22 8 -32 -4 -24 -47 -24 -62 0 -9 15 -7 21 8 33 25 18 31 18 46 -1z
m106 -67 c29 -41 41 -112 30 -170 -7 -39 -54 -100 -63 -80 -2 7 -11 18 -18 26
-12 12 -11 20 6 52 26 50 18 98 -23 140 -19 20 -26 34 -19 38 6 4 11 18 11 31
0 22 2 24 25 13 13 -6 36 -28 51 -50z m-261 -90 c28 -12 28 -31 1 -36 -22 -5
-46 16 -39 34 6 17 6 17 38 2z m1055 -72 c0 -11 -151 -146 -199 -178 -18 -12
-29 -14 -38 -6 -21 17 -16 27 50 96 35 37 78 86 96 110 l34 43 28 -27 c16 -15
29 -33 29 -38z m-962 -33 c-3 -16 -16 -18 -113 -18 -97 0 -110 2 -113 18 -3
15 7 17 113 17 106 0 116 -2 113 -17z m96 -38 c9 -9 24 -36 35 -60 13 -30 26
-45 38 -45 22 0 43 -18 43 -37 0 -10 -41 -13 -190 -13 -145 0 -190 3 -190 13
1 28 18 36 90 39 l74 3 11 45 c8 31 18 49 35 57 32 16 36 16 54 -2z m-115 -14
c17 -11 5 -51 -15 -51 -20 0 -68 25 -83 44 -12 14 -8 16 35 16 27 0 55 -4 63
-9z m-112 -241 c332 -117 310 -108 318 -137 3 -14 4 -27 2 -29 -8 -8 -559 190
-564 203 -5 13 2 43 11 43 2 0 107 -36 233 -80z m1716 54 c3 -19 0 -27 -17
-33 -250 -91 -548 -192 -553 -187 -4 4 -3 18 3 32 8 23 37 36 274 119 146 52
270 94 276 94 7 1 14 -11 17 -25z m-970 -3 c-2 -6 4 -11 12 -11 8 0 15 -9 15
-20 0 -14 -5 -18 -17 -13 -15 5 -16 3 -5 -8 6 -7 12 -23 12 -36 0 -13 -6 -24
-12 -24 -7 -1 20 -5 59 -9 67 -7 149 -38 218 -82 11 -7 21 -13 23 -14 1 -1
-13 -47 -33 -102 -19 -56 -35 -110 -35 -122 0 -24 -6 -24 -85 -5 -33 8 -107
15 -165 15 -58 0 -132 -7 -165 -15 -78 -19 -85 -18 -85 3 0 9 -16 66 -35 126
-39 123 -39 119 -25 111 5 -3 27 6 47 20 48 33 152 65 209 65 41 0 43 1 32 20
-10 15 -10 22 0 32 16 16 15 28 -3 28 -8 0 -15 7 -15 15 0 8 7 15 15 15 8 0
14 3 14 8 -3 17 2 23 14 19 6 -2 11 -10 10 -16z m861 -197 c16 -6 22 -45 10
-57 -4 -4 -8 -22 -10 -41 -2 -29 0 -35 19 -38 31 -4 22 -23 -10 -23 -26 0 -28
-4 -57 -123 l-30 -122 32 -30 c45 -41 65 -93 57 -147 -11 -74 -88 -143 -160
-143 -29 0 -30 5 -10 40 8 14 14 28 15 32 0 5 -54 28 -65 28 -1 0 -5 -18 -9
-40 -3 -22 -10 -40 -15 -40 -16 0 -62 51 -77 85 -40 97 20 204 127 221 l35 6
36 114 c35 112 39 168 13 158 -18 -7 -30 15 -16 29 8 8 14 8 23 -1 18 -18 28
-15 28 8 0 11 5 20 11 20 6 0 8 7 5 16 -7 17 9 54 24 54 4 0 15 -3 24 -6z
m-74 -44 c13 -9 13 -11 0 -19 -17 -12 -30 -5 -30 15 0 16 9 18 30 4z m123 -55
c1 -5 -6 -11 -15 -13 -11 -2 -18 3 -18 13 0 17 30 18 33 0z m-1418 -229 l0
-198 -28 -24 c-36 -30 -89 -32 -118 -3 -43 43 2 111 75 111 l36 0 0 95 0 95
-35 -6 c-19 -4 -70 -17 -112 -29 l-78 -22 -5 -153 c-5 -166 -8 -174 -67 -189
-59 -14 -116 35 -95 82 14 30 67 58 98 52 l24 -4 0 146 c0 80 4 152 8 159 8
12 268 92 287 88 6 -2 10 -77 10 -200z m1060 183 c0 -8 -6 -13 -13 -11 -8 1
-11 -2 -7 -8 4 -6 13 -9 20 -6 18 7 27 -5 15 -19 -7 -8 -2 -39 15 -96 27 -91
30 -119 15 -119 -5 0 -21 39 -35 88 -15 48 -30 100 -36 116 -10 33 -2 79 15
73 6 -2 11 -10 11 -18z m-440 -119 c68 -11 115 -28 115 -42 0 -5 -17 -17 -37
-26 -50 -22 -337 -23 -397 -1 -57 20 -56 36 6 53 93 26 212 33 313 16z m-365
-162 c0 -6 -69 -121 -153 -257 -84 -135 -182 -292 -217 -348 -56 -92 -64 -101
-76 -85 -7 9 -14 23 -14 31 0 11 157 269 397 654 20 32 26 36 43 27 11 -6 20
-16 20 -22z m680 -223 c258 -415 263 -424 256 -450 -4 -14 -11 -25 -16 -25
-11 0 -59 73 -217 330 -52 85 -118 191 -145 235 -88 138 -86 134 -63 151 15
11 21 12 31 2 6 -7 76 -116 154 -243z m-326 114 c64 -23 113 -45 110 -50 -3
-5 -12 -9 -21 -9 -13 0 -14 -9 -8 -55 6 -52 3 -61 -22 -52 -5 1 -6 21 -5 45 3
27 0 42 -8 42 -7 0 -45 -12 -86 -26 l-74 -27 -108 38 c-59 21 -111 41 -115 45
-4 4 43 25 105 48 62 22 114 41 115 41 1 1 54 -17 117 -40z m-179 -131 c55
-21 57 -21 113 -3 31 10 63 20 70 22 8 4 12 -8 12 -41 0 -37 -4 -48 -24 -61
-53 -35 -181 -28 -221 12 -13 12 -22 93 -11 93 2 0 30 -10 61 -22z m-133 -57
c21 -5 51 -21 69 -35 17 -14 51 -31 75 -37 l44 -11 0 -139 c0 -77 -2 -139 -5
-139 -3 0 -23 9 -43 19 -42 21 -95 36 -164 46 l-48 6 0 150 c0 166 -4 158 72
140z m466 -143 l-3 -153 -30 -2 c-58 -5 -140 -26 -177 -44 -21 -11 -40 -19
-43 -19 -3 0 -5 63 -5 140 l0 140 28 6 c58 13 68 17 93 41 28 26 67 41 112 42
l28 1 -3 -152z m-563 -70 l-3 -108 42 0 c55 0 144 -24 204 -54 l49 -25 49 24
c60 30 155 55 206 55 l37 0 3 148 c3 123 5 147 18 147 13 0 15 -26 18 -167 l2
-168 -63 0 c-75 0 -166 -22 -225 -55 -43 -24 -43 -24 -75 -5 -58 34 -121 52
-207 59 l-85 6 -3 159 c-2 121 1 161 10 167 18 12 26 -50 23 -183z m345 -353
l44 -45 -32 -33 c-19 -19 -32 -43 -32 -58 0 -39 44 -33 80 11 l29 35 48 -47
48 -48 -47 -47 -48 -47 -33 32 c-18 18 -43 32 -55 32 -20 0 -22 -5 -22 -52 0
-51 0 -51 20 -33 19 17 22 17 37 2 13 -13 14 -19 4 -31 -7 -8 -22 -18 -32 -21
-18 -6 -20 -15 -18 -81 2 -77 -9 -104 -41 -104 -34 0 -43 26 -37 105 4 58 2
75 -8 75 -7 0 -23 9 -36 19 -23 18 -23 21 -7 37 16 16 18 16 33 0 10 -9 19
-16 20 -14 2 2 5 25 6 53 4 66 -18 72 -72 19 l-39 -38 -48 47 -47 47 48 47 47
48 31 -38 c20 -24 39 -37 55 -37 36 0 32 45 -8 87 l-32 33 44 45 c24 25 47 45
50 45 3 0 26 -20 50 -45z"/>
<path d="M6935 3863 c-36 -7 -109 -36 -143 -56 l-32 -19 21 -35 c14 -23 22
-50 21 -74 -1 -22 3 -39 8 -39 6 0 10 16 10 36 0 21 4 33 10 29 6 -3 10 -17
10 -31 0 -13 5 -24 11 -24 6 0 8 7 5 17 -4 9 -1 41 5 70 l13 55 23 -39 c12
-21 23 -48 23 -60 0 -14 6 -23 15 -23 17 0 19 9 5 44 -5 14 -6 28 -1 30 9 6
31 -37 31 -61 0 -11 3 -14 10 -7 6 6 6 23 -1 48 -8 30 -7 46 6 79 10 23 19 48
22 55 5 12 -28 15 -72 5z"/>
<path d="M7070 3866 c0 -2 9 -25 21 -51 20 -45 21 -73 4 -117 -4 -10 -3 -18 3
-18 6 0 14 16 18 35 9 49 28 45 21 -5 -3 -22 -2 -40 1 -39 4 0 20 27 35 60 16
32 33 57 38 54 5 -4 9 -35 9 -71 0 -67 19 -92 21 -26 l1 37 11 -42 c12 -50 31
-59 22 -10 -5 25 0 41 20 71 29 43 30 41 -40 78 -59 31 -185 61 -185 44z"/>
<path d="M6880 3686 c0 -14 5 -26 10 -26 6 0 10 9 10 19 0 11 -4 23 -10 26 -6
4 -10 -5 -10 -19z"/>
<path d="M7180 3678 c0 -19 2 -20 10 -8 13 19 13 30 0 30 -5 0 -10 -10 -10
-22z"/>
<path d="M7851 3584 c0 -11 3 -14 6 -6 3 7 2 16 -1 19 -3 4 -6 -2 -5 -13z"/>
<path d="M7821 3554 c0 -11 3 -14 6 -6 3 7 2 16 -1 19 -3 4 -6 -2 -5 -13z"/>
<path d="M7841 3544 c0 -11 3 -14 6 -6 3 7 2 16 -1 19 -3 4 -6 -2 -5 -13z"/>
<path d="M7831 3504 c0 -11 3 -14 6 -6 3 7 2 16 -1 19 -3 4 -6 -2 -5 -13z"/>
<path d="M7801 3484 c0 -11 3 -14 6 -6 3 7 2 16 -1 19 -3 4 -6 -2 -5 -13z"/>
<path d="M7781 3414 c-7 -25 -10 -48 -8 -51 3 -2 10 17 16 43 7 25 10 48 8 51
-3 2 -10 -17 -16 -43z"/>
<path d="M7801 3384 c0 -11 3 -14 6 -6 3 7 2 16 -1 19 -3 4 -6 -2 -5 -13z"/>
<path d="M7781 3314 c-7 -25 -10 -48 -8 -51 3 -2 10 17 16 43 7 25 10 48 8 51
-3 2 -10 -17 -16 -43z"/>
<path d="M7751 3309 c-7 -22 -11 -43 -8 -45 2 -2 9 14 16 37 7 22 11 43 8 45
-2 2 -9 -14 -16 -37z"/>
<path d="M7665 3320 c-9 -15 4 -30 26 -30 12 0 19 7 19 20 0 21 -33 29 -45 10z"/>
<path d="M7824 3285 c-7 -18 3 -35 21 -35 21 0 28 19 15 35 -16 19 -29 19 -36
0z"/>
<path d="M7761 3234 c0 -11 3 -14 6 -6 3 7 2 16 -1 19 -3 4 -6 -2 -5 -13z"/>
<path d="M7024 2499 c-10 -17 13 -36 27 -22 12 12 4 33 -11 33 -5 0 -12 -5
-16 -11z"/>
<path d="M6881 2356 c-8 -10 -8 -16 3 -25 10 -9 16 -8 26 3 12 15 6 36 -9 36
-5 0 -14 -6 -20 -14z"/>
<path d="M7164 2359 c-10 -17 13 -36 27 -22 12 12 4 33 -11 33 -5 0 -12 -5
-16 -11z"/>
<path d="M9256 2880 c-94 -71 -157 -200 -137 -278 21 -75 77 -122 146 -122 48
0 86 21 168 91 75 65 117 77 137 38 25 -46 -30 -135 -116 -185 -24 -14 -44
-28 -44 -30 0 -12 46 -84 53 -84 21 0 86 42 123 80 92 92 126 208 85 288 -27
53 -72 82 -129 82 -55 0 -88 -17 -168 -90 -89 -81 -144 -82 -144 -1 0 28 9 43
53 85 28 28 61 56 71 62 19 10 19 12 -10 52 -16 23 -33 42 -39 42 -5 -1 -28
-14 -49 -30z"/>
<path d="M4602 2747 c-127 -84 -232 -155 -232 -158 0 -9 187 -299 207 -321 14
-16 18 -15 54 9 22 15 38 31 35 38 -2 6 -33 56 -68 111 -35 54 -67 104 -71
110 -7 11 78 74 99 74 5 0 34 -39 64 -87 30 -48 58 -91 61 -96 7 -9 89 31 89
43 0 4 -27 49 -60 100 -33 51 -60 97 -60 100 0 4 20 21 45 39 l44 32 72 -111
c39 -60 73 -110 75 -110 3 0 22 12 44 26 35 23 38 29 28 48 -9 16 -184 293
-192 303 -1 1 -106 -66 -234 -150z"/>
<path d="M5020 2505 l-33 -34 51 -59 51 -59 -67 -64 c-37 -35 -111 -104 -165
-153 l-98 -90 45 -45 45 -45 127 120 c70 65 143 133 163 151 l36 32 58 -57 57
-57 36 37 37 36 -148 161 c-81 89 -151 161 -154 161 -4 0 -22 -16 -41 -35z"/>
<path d="M8893 2409 c-65 -72 -122 -137 -127 -144 -10 -14 2 -26 267 -271 66
-60 122 -110 126 -112 9 -3 281 293 281 306 0 5 -16 22 -37 37 l-36 28 -36
-39 c-20 -22 -64 -70 -99 -109 l-63 -69 -45 46 -46 45 82 88 82 88 -37 36 -36
36 -83 -89 -83 -90 -41 35 c-23 19 -42 38 -42 43 0 4 38 50 85 101 47 51 85
95 85 99 0 8 -63 65 -72 66 -4 0 -60 -59 -125 -131z"/>
<path d="M5235 1973 c-87 -115 -158 -214 -159 -221 -1 -7 19 -28 44 -46 l45
-34 65 89 c36 48 68 88 72 89 4 0 48 -30 98 -66 l91 -66 -24 -32 c-13 -17 -42
-56 -65 -87 -23 -31 -42 -60 -42 -65 0 -8 28 -29 86 -66 7 -5 28 16 55 55 24
34 86 121 139 192 53 72 106 144 118 162 l22 32 -44 30 c-25 17 -49 31 -54 31
-8 0 -68 -74 -124 -154 -5 -8 -54 25 -176 119 -11 9 -1 27 47 89 34 43 61 82
61 86 0 9 -80 70 -91 70 -3 0 -77 -93 -164 -207z"/>
<path d="M8590 2097 c-141 -39 -243 -178 -225 -305 15 -108 79 -192 183 -240
128 -58 302 10 367 143 11 24 21 69 23 112 3 60 0 80 -21 125 -59 129 -200
200 -327 165z m126 -127 c55 -27 96 -86 102 -150 4 -40 0 -57 -21 -93 -84
-142 -293 -78 -305 93 -5 73 19 119 81 149 53 26 89 26 143 1z"/>
<path d="M5772 1693 c-107 -199 -164 -314 -160 -318 2 -1 26 -14 54 -28 l51
-26 58 112 c32 62 89 169 127 239 37 69 68 130 68 135 0 9 -83 53 -99 53 -5 0
-50 -75 -99 -167z"/>
<path d="M8005 1766 c-166 -70 -185 -79 -185 -88 0 -13 200 -480 210 -492 10
-10 100 23 106 39 3 7 -6 38 -20 70 -15 32 -26 63 -26 70 0 7 21 21 48 32 l47
20 81 -54 80 -54 64 29 63 28 -92 58 c-50 31 -91 60 -91 62 0 3 9 22 20 44 36
71 17 163 -46 222 -64 59 -141 63 -259 14z m157 -87 c11 -6 26 -26 34 -45 22
-53 1 -95 -67 -127 -87 -41 -85 -42 -124 47 -19 44 -33 82 -31 84 2 2 30 14
63 28 64 26 94 29 125 13z"/>
<path d="M6137 1699 c-93 -22 -151 -71 -195 -167 -20 -45 -23 -65 -20 -125 5
-85 26 -136 81 -189 51 -50 130 -78 215 -78 152 1 258 104 270 261 10 140 -62
248 -193 288 -72 22 -98 24 -158 10z m161 -132 c35 -24 72 -89 72 -128 0 -69
-44 -145 -101 -174 -67 -35 -159 -8 -199 57 -43 71 -34 152 27 219 56 62 131
72 201 26z"/>
<path d="M7544 1620 c-89 -21 -166 -39 -172 -41 -9 -4 88 -522 100 -534 4 -4
358 68 394 80 9 3 9 17 2 52 -6 26 -11 49 -12 50 -2 2 -64 -11 -140 -27 -75
-17 -138 -30 -140 -30 -8 0 -28 101 -23 113 3 8 53 23 117 37 l112 23 -7 46
c-4 25 -8 47 -10 49 -2 2 -55 -8 -120 -21 -83 -18 -118 -22 -120 -14 -16 46
-22 99 -12 102 7 2 66 16 132 31 66 14 121 27 122 28 1 1 -3 23 -9 49 -12 57
-1 57 -214 7z"/>
<path d="M6810 1417 c0 -85 -3 -209 -7 -275 l-6 -122 66 0 67 0 0 115 0 115
115 0 115 0 0 -115 0 -115 66 0 67 0 -7 31 c-3 17 -6 141 -6 275 l0 244 -60 0
-60 0 0 -105 0 -105 -115 0 -115 0 0 105 0 105 -60 0 -60 0 0 -153z"/>
</g>
</svg>
